<svg xmlns="http://www.w3.org/2000/svg" viewBox="0 0 640 520" role="img" aria-labelledby="title desc">
  <title id="title">DukaanZone DZ mark</title>
  <desc id="desc">Vector DZ monogram in steel blue and charcoal navy.</desc>
  <defs>
    <linearGradient id="dGradient" x1="112" y1="48" x2="430" y2="452" gradientUnits="userSpaceOnUse">
      <stop offset="0" stop-color="#8FA5C4"/>
      <stop offset="0.46" stop-color="#5D7BA0"/>
      <stop offset="1" stop-color="#3D5070"/>
    </linearGradient>
    <linearGradient id="zGradient" x1="374" y1="56" x2="548" y2="456" gradientUnits="userSpaceOnUse">
      <stop offset="0" stop-color="#2E3D55"/>
      <stop offset="1" stop-color="#1E2D40"/>
    </linearGradient>
    <filter id="softShadow" x="-20%" y="-20%" width="140%" height="150%">
      <feDropShadow dx="0" dy="9" stdDeviation="8" flood-color="#1E2D40" flood-opacity="0.22"/>
    </filter>
  </defs>
  <rect x="12" y="12" width="616" height="496" rx="128" fill="#FFFFFF"/>
  <g filter="url(#softShadow)">
    <path fill="url(#dGradient)" d="M92 64h152c48 0 91 9 129 28 37 18 67 44 89 77 22 34 33 73 33 119 0 45-11 85-33 119-22 33-52 59-90 77-38 19-82 28-132 28H92V64Zm124 103v242h22c37 0 66-10 88-31 22-20 33-50 33-90s-11-69-33-90c-22-21-51-31-88-31h-22Z"/>
    <path fill="url(#zGradient)" d="M382 64h190v104L395 409h177v103H352L170 512 405 167h-83l-44-103h104Z"/>
    <path fill="#FFFFFF" d="M329 405 481 194h-82L215 512h64c29-15 39-56 50-107Z" opacity="0.88"/>
    <path fill="#FFFFFF" d="M446 64c36 14 63 34 84 59l-58 58c-25-32-58-52-99-62L322 64h124Z" opacity="0.24"/>
  </g>
</svg>
